<svg width="100" height="100" viewBox="0 0 100 100" fill="none" xmlns="http://www.w3.org/2000/svg">
<g clip-path="url(#clip0)">
<path d="M43.772 59.3671L60.0362 49.9998L43.772 40.6323V59.3671Z" fill="#600E09"/>
<path d="M49 0C21.39 0 -1 22.39 -1 50C-1 77.61 21.39 100 49 100C76.61 100 99 77.61 99 50C99 22.39 76.61 0 49 0ZM80.2422 50.051C80.2422 50.051 80.2423 60.1913 78.956 65.081C78.235 67.7575 76.1247 69.8678 73.4485 70.588C68.5587 71.875 49 71.875 49 71.875C49 71.875 29.4925 71.875 24.5515 70.5368C21.8752 69.8165 19.7649 67.7055 19.044 65.0292C17.7569 60.1912 17.7569 50 17.7569 50C17.7569 50 17.7569 39.8605 19.044 34.9708C19.7642 32.2945 21.9263 30.1323 24.5515 29.412C29.4413 28.125 49 28.125 49 28.125C49 28.125 68.5587 28.125 73.4485 29.4633C76.1247 30.1835 78.235 32.2945 78.956 34.9708C80.2943 39.8605 80.2422 50.051 80.2422 50.051Z" fill="#600E09"/>
</g>
<defs>
<clipPath id="clip0">
<rect width="100" height="100" fill="white"/>
</clipPath>
</defs>
</svg>
